<?xml version="1.0" encoding="UTF-8" standalone="no"?>
<!-- Created with Inkscape (http://www.inkscape.org/) -->

<svg
   width="820"
   height="462"
   viewBox="0 0 820 462"
   version="1.1"
   id="svg1"
   xmlns:inkscape="http://www.inkscape.org/namespaces/inkscape"
   xmlns:sodipodi="http://sodipodi.sourceforge.net/DTD/sodipodi-0.dtd"
   xmlns="http://www.w3.org/2000/svg"
   xmlns:svg="http://www.w3.org/2000/svg">
  <sodipodi:namedview
     id="namedview1"
     pagecolor="#ffffff"
     bordercolor="#000000"
     borderopacity="0.25"
     inkscape:showpageshadow="2"
     inkscape:pageopacity="0.0"
     inkscape:pagecheckerboard="0"
     inkscape:deskcolor="#d1d1d1"
     inkscape:document-units="px"
     inkscape:export-bgcolor="#ffffff00" />
  <defs
     id="defs1" />
  <g
     inkscape:label="Layer 1"
     inkscape:groupmode="layer"
     id="layer1">
    <path
       style="font-size:74.6667px;font-family:Rockwell;-inkscape-font-specification:Rockwell;letter-spacing:1.46px;fill:#abbd95;stroke:#abbd95;stroke-width:2"
       d="M 181.99942,243.67206 V 205.646 h -6.41667 v -6.34376 h 39.33856 v 15.27605 h -6.27083 V 205.646 h -18.9948 v 15.02084 h 16.3698 v 6.34375 h -16.3698 v 16.66147 h 6.48958 v 6.34375 h -20.56251 v -6.34375 z M 245.548,232.18767 h -18.22918 l -3.90104,11.48439 h 6.16146 v 6.34375 h -19.97918 v -6.34375 h 6.125 l 13.85418,-38.64586 h -6.16146 v -5.72396 h 25.92188 v 5.72396 h -6.30729 l 14.1823,38.64586 h 5.6875 v 6.34375 h -19.8698 v -6.34375 h 6.30729 z m -1.89584,-5.94271 -6.74479,-21.21876 h -0.69271 l -7.00001,21.21876 z m 22.71522,23.77085 v -18.41147 h 6.34376 v 4.48438 q 4.55729,8.27604 11.92188,8.27604 3.75521,0 6.34375,-2.29687 2.58854,-2.29688 2.58854,-6.01563 0,-3.60938 -2.11458,-5.17709 -2.11459,-1.60416 -7.98438,-3.17187 -6.81771,-1.82292 -10.09896,-3.42709 -3.28126,-1.64062 -5.25001,-4.63021 -1.93229,-3.02604 -1.93229,-7.14583 0,-6.38022 4.22917,-10.17188 4.26563,-3.82813 10.6823,-3.82813 6.08854,0 11.30208,3.9375 v -3.39063 h 6.19792 v 15.38543 h -6.19792 V 210.896 q -3.90104,-5.8698 -10.75521,-5.8698 -4.15625,0 -6.38021,1.9323 -2.22396,1.89583 -2.22396,4.55729 0,2.04167 1.13021,3.60938 1.13021,1.53125 2.88021,2.26041 1.75,0.72917 6.89063,2.04167 6.70833,1.75 9.73438,3.28125 3.02604,1.4948 5.21354,5.03126 2.1875,3.53646 2.1875,8.13021 0,6.48958 -4.59375,10.71875 -4.55729,4.22917 -11.30209,4.22917 -6.92709,0 -12.46875,-4.99479 v 4.19271 z m 56.11107,-6.34375 V 205.646 H 312.0149 v 12.94271 h -6.27084 v -19.28647 h 41.08857 v 19.28647 h -6.27084 V 205.646 H 330.1347 v 38.02606 h 6.59896 v 6.34375 h -20.7448 v -6.34375 z m 54.54502,0 V 205.646 h -6.41667 v -6.34376 h 39.33856 v 15.27605 h -6.27083 V 205.646 h -18.9948 v 15.02084 h 16.36979 v 6.34375 h -16.36979 v 16.66147 h 6.48958 v 6.34375 H 370.6068 v -6.34375 z m 63.54857,-11.48439 h -18.22917 l -3.90105,11.48439 h 6.16147 v 6.34375 h -19.97918 v -6.34375 h 6.125 l 13.85418,-38.64586 h -6.16147 v -5.72396 h 25.92189 v 5.72396 h -6.30729 l 14.1823,38.64586 h 5.6875 v 6.34375 h -19.8698 v -6.34375 h 6.30729 z m -1.89583,-5.94271 -6.7448,-21.21876 h -0.6927 l -7.00001,21.21876 z m 22.71522,23.77085 v -18.41147 h 6.34375 v 4.48438 q 4.5573,8.27604 11.92188,8.27604 3.75521,0 6.34376,-2.29687 2.58854,-2.29688 2.58854,-6.01563 0,-3.60938 -2.11458,-5.17709 -2.11459,-1.60416 -7.98438,-3.17187 -6.81772,-1.82292 -10.09897,-3.42709 -3.28125,-1.64062 -5.25,-4.63021 -1.93229,-3.02604 -1.93229,-7.14583 0,-6.38022 4.22917,-10.17188 4.26562,-3.82813 10.68229,-3.82813 6.08855,0 11.30209,3.9375 v -3.39063 h 6.19792 v 15.38543 h -6.19792 V 210.896 q -3.90104,-5.8698 -10.75521,-5.8698 -4.15625,0 -6.38021,1.9323 -2.22396,1.89583 -2.22396,4.55729 0,2.04167 1.13021,3.60938 1.13021,1.53125 2.88021,2.26041 1.75,0.72917 6.89062,2.04167 6.70834,1.75 9.73438,3.28125 3.02605,1.4948 5.21355,5.03126 2.1875,3.53646 2.1875,8.13021 0,6.48958 -4.59375,10.71875 -4.5573,4.22917 -11.30209,4.22917 -6.92709,0 -12.46876,-4.99479 v 4.19271 z m 46.2673,-6.34375 V 205.646 h -5.76042 v -6.34376 h 19.39584 v 6.34376 h -5.97917 v 14.51042 h 22.0573 V 205.646 h -5.94271 v -6.34376 h 19.39584 v 6.34376 h -5.79687 v 38.02606 h 5.79687 v 6.34375 h -19.39584 v -6.34375 h 5.94271 v -17.17189 h -22.0573 v 17.17189 h 5.97917 v 6.34375 h -19.39584 v -6.34375 z m 54.39753,0 V 205.646 h -5.50521 v -6.34376 h 18.66667 v 6.34376 h -5.50521 v 38.02606 h 5.50521 v 6.34375 h -18.66667 v -6.34375 z m 20.71001,-19.25001 q 0,-11.04688 7.21875,-18.48439 7.21875,-7.4375 18.81251,-7.4375 11.70313,0 19.06772,7.4375 7.36458,7.43751 7.36458,18.63022 0,11.41146 -7.51042,18.84897 -7.47396,7.40104 -19.03125,7.40104 -7.36459,0 -13.56251,-3.5 -6.16146,-3.53646 -9.26042,-9.8073 -3.09896,-6.30729 -3.09896,-13.08854 z m 8.34896,0.0364 q 0,8.34897 4.88542,14.00001 4.88542,5.65105 12.83334,5.65105 7.875,0 12.94271,-5.76042 5.06771,-5.79688 5.06771,-13.81772 0,-8.09375 -5.17708,-13.67188 -5.14063,-5.61459 -12.94272,-5.61459 -7.76563,0 -12.6875,5.50521 -4.92188,5.50522 -4.92188,13.70834 z m 56.8767,19.21356 V 205.646 h -7.25522 v -6.34376 h 17.31772 l 22.2396,39.41148 V 205.646 h -7.1823 v -6.34376 h 20.81772 v 6.34376 h -7.47396 v 44.88023 h -7.87501 l -24.31772,-43.27607 v 36.4219 h 7.25521 v 6.34375 h -20.78126 v -6.34375 z"
       id="text1"
       aria-label="FAST FASHION" />
  </g>
</svg>
