<svg version="1.1" id="Layer_1" xmlns="http://www.w3.org/2000/svg" xmlns:xlink="http://www.w3.org/1999/xlink" x="0px" y="0px"
	 width="100%" viewBox="0 0 272 352" enable-background="new 0 0 272 352" xml:space="preserve">
<path transform="translate(150 300)  scale(0.5 -0.5) rotate(90)" fill="#f3f3f3" opacity="1.000000" stroke="none" 

	d="
M185.471375,190.429260 
	C179.949142,204.917969 175.759857,219.570709 166.868698,232.131104 
	C152.600067,252.288208 132.815933,263.266327 108.784264,267.406158 
	C95.352913,269.719879 81.969604,269.893402 68.556999,267.518677 
	C65.219925,266.927856 63.982094,268.304382 63.177258,271.588501 
	C59.850338,285.163910 57.432190,298.906097 55.049992,312.659821 
	C54.381489,316.519440 52.792110,319.413727 48.342785,319.130524 
	C44.703880,318.898865 42.990417,315.822693 43.614891,310.813751 
	C45.467815,295.951263 48.630352,281.334656 52.320122,266.841827 
	C53.213474,263.332886 52.765240,261.197479 49.861370,258.732056 
	C32.457561,243.956039 20.196512,225.813477 16.464428,202.977081 
	C13.494318,184.803192 16.436298,167.218292 24.318359,150.484436 
	C37.196735,123.143242 58.106384,103.375008 83.369308,87.737648 
	C105.513908,74.030479 129.511169,65.076683 154.925491,59.455685 
	C182.442856,53.369545 210.149902,51.400223 238.205536,53.645424 
	C241.355240,53.897484 244.532654,53.786018 247.694550,53.910530 
	C249.172729,53.968731 250.944260,53.821793 251.692184,55.389175 
	C252.517319,57.118397 250.933685,58.117809 249.891800,59.111038 
	C238.557175,69.916405 229.859879,82.642250 222.458725,96.355606 
	C212.462784,114.876747 205.161636,134.519363 198.127396,154.275452 
	C193.888428,166.180786 189.768372,178.128464 185.471375,190.429260 
M132.503952,116.191696 
	C131.786057,110.418716 131.145142,104.634811 130.327316,98.876022 
	C129.595108,93.720123 131.467957,90.093590 135.334946,89.613144 
	C138.867935,89.174194 141.739929,92.327354 142.102295,97.276253 
	C142.341110,100.537727 142.462982,103.789787 144.073318,107.111244 
	C149.147186,103.128029 153.880585,99.211632 158.826416,95.584908 
	C163.928070,91.843910 169.182465,88.302773 174.468719,84.824188 
	C180.408020,80.915871 183.844849,80.936371 186.169128,84.620789 
	C188.369446,88.108704 186.931610,90.585861 180.848099,94.586380 
	C173.688049,99.294838 166.542969,104.048172 159.953323,109.824562 
	C160.705704,110.383179 160.959702,110.734993 161.199615,110.725639 
	C165.361984,110.563347 169.454224,111.331284 169.831741,116.174004 
	C170.218124,121.130371 166.152832,122.376289 162.050903,122.642700 
	C148.106155,123.548393 135.906082,127.557625 127.760254,140.099869 
	C124.207726,145.569733 119.194519,150.043472 115.738304,155.785568 
	C117.600540,156.668228 118.793159,155.803574 120.033546,155.483337 
	C126.316666,153.861130 132.573166,152.133270 138.871246,150.572540 
	C142.305298,149.721558 144.928406,151.143494 145.947327,154.445908 
	C146.977356,157.784302 145.450882,160.295059 142.224960,161.645584 
	C140.999878,162.158463 139.723572,162.574509 138.439026,162.915710 
	C128.637970,165.519119 118.857903,168.211380 109.006699,170.610764 
	C105.648552,171.428680 103.487297,173.170273 101.728432,176.056976 
	C95.564331,186.173721 90.176033,196.693985 85.211319,207.428925 
	C83.951653,210.152618 82.259666,212.836899 81.865936,216.431564 
	C88.737038,214.976059 95.078407,213.730667 101.371826,212.277588 
	C111.890549,209.848953 122.379631,207.291763 132.879135,204.780075 
	C137.101456,203.770020 140.823456,205.560898 141.511078,209.226822 
	C142.302490,213.446106 139.563446,215.216049 136.073441,216.269852 
	C135.435669,216.462418 134.789886,216.632996 134.140564,216.782242 
	C115.994766,220.952789 97.854973,225.150101 79.691101,229.240463 
	C77.799294,229.666473 76.010117,230.036011 75.268501,231.966644 
	C72.363472,239.529160 69.862152,247.220718 67.775238,255.307709 
	C69.324638,255.649185 70.430649,255.944778 71.554649,256.132751 
	C84.859283,258.357941 98.045387,257.809692 111.218002,254.863403 
	C136.088455,249.300705 154.573959,235.783554 164.663452,211.995026 
	C173.830887,190.380478 180.695633,167.908478 188.694855,145.857742 
	C198.704376,118.265388 209.177460,90.896500 227.158249,67.200089 
	C227.573212,66.653236 227.816696,66.063713 226.994003,65.049973 
	C207.502075,64.731735 187.840500,65.297264 168.215637,68.857307 
	C144.596680,73.141907 122.011795,80.141304 100.747612,91.265892 
	C76.887070,103.748787 56.259300,120.073669 41.621014,143.010910 
	C20.428398,176.218338 21.424519,214.956329 51.050850,243.762146 
	C52.768974,245.432709 53.986378,247.771439 57.109058,248.334976 
	C59.612392,240.936646 62.116512,233.745010 64.427948,226.491974 
	C64.798332,225.329758 64.508224,223.840561 64.183258,222.591003 
	C60.334091,207.790497 56.416050,193.007919 52.525208,178.218246 
	C50.663727,171.142471 48.720791,164.085800 47.013844,156.972702 
	C46.180576,153.500381 47.256973,150.445007 50.967407,149.461395 
	C54.301579,148.577515 56.785725,150.179855 58.038139,153.462402 
	C58.393826,154.394638 58.777588,155.325165 59.025742,156.288086 
	C61.844872,167.227325 64.588783,178.186218 67.464119,189.110580 
	C68.844925,194.356720 70.462006,199.540665 72.143555,205.344589 
	C73.054405,204.262756 73.591988,203.838898 73.851212,203.284836 
	C79.503540,191.203568 85.749733,179.440536 92.767242,168.096848 
	C94.071640,165.988297 93.610008,164.041260 93.018997,161.890305 
	C90.068298,151.151413 87.220406,140.384308 84.324097,129.630432 
	C83.321884,125.909271 84.742996,123.216049 88.258553,122.180626 
	C92.004181,121.077438 94.260155,123.279259 95.310860,126.736259 
	C96.421036,130.388977 97.353905,134.095261 98.436394,137.756805 
	C99.769363,142.265625 101.176918,146.752411 102.758171,151.921967 
	C110.229172,143.091949 117.075600,135.167664 123.715347,127.073814 
	C126.549995,123.618355 130.601166,121.220139 132.503952,116.191696 
z"/>
</svg>