<svg width="687.076" height="110.626" viewBox="0 0 687.076 110.626" xmlns="http://www.w3.org/2000/svg">
	<g id="svgGroup" stroke-linecap="round" fill-rule="evenodd" font-size="9pt" stroke="#000" stroke-width="0.25mm" fill="none" style="stroke:#000;stroke-width:0.25mm;fill:none">
		<path d="M 105.976 55.725 Q 105.976 67.8 102.151 77.888 Q 98.326 87.975 91.351 95.25 Q 84.376 102.525 74.588 106.538 A 53.948 53.948 0 0 1 59.1 110.267 A 65.486 65.486 0 0 1 52.951 110.55 Q 41.101 110.55 31.351 106.538 Q 21.601 102.525 14.626 95.25 A 50.195 50.195 0 0 1 4.571 79.754 A 57.915 57.915 0 0 1 3.826 77.888 A 59.24 59.24 0 0 1 0.271 62 A 71.572 71.572 0 0 1 0.001 55.725 Q 0.001 43.65 3.826 33.563 A 52.153 52.153 0 0 1 11.922 19.248 A 48.599 48.599 0 0 1 14.626 16.163 Q 21.601 8.85 31.351 4.8 A 53.198 53.198 0 0 1 46.804 1.036 A 64.801 64.801 0 0 1 52.951 0.75 Q 64.801 0.75 74.588 4.8 Q 84.376 8.85 91.351 16.163 A 50.702 50.702 0 0 1 101.534 32.003 A 58.317 58.317 0 0 1 102.151 33.563 A 59.24 59.24 0 0 1 105.706 49.451 A 71.572 71.572 0 0 1 105.976 55.725 Z M 91.051 55.725 Q 91.051 45.825 88.351 37.95 A 41.057 41.057 0 0 0 84.601 29.862 A 34.125 34.125 0 0 0 80.701 24.638 Q 75.751 19.2 68.701 16.275 A 38.273 38.273 0 0 0 58.227 13.636 A 47.524 47.524 0 0 0 52.951 13.35 Q 44.326 13.35 37.276 16.275 Q 30.226 19.2 25.238 24.638 Q 20.251 30.075 17.551 37.95 A 49.097 49.097 0 0 0 15.305 47.945 A 64.202 64.202 0 0 0 14.851 55.725 Q 14.851 65.625 17.551 73.463 Q 20.251 81.3 25.238 86.738 Q 30.226 92.175 37.276 95.063 Q 44.326 97.95 52.951 97.95 A 45.225 45.225 0 0 0 62.212 97.037 A 37.086 37.086 0 0 0 68.701 95.063 Q 75.751 92.175 80.701 86.738 A 35.737 35.737 0 0 0 86.654 77.681 A 43.837 43.837 0 0 0 88.351 73.463 A 48.518 48.518 0 0 0 90.57 63.711 A 63.822 63.822 0 0 0 91.051 55.725 Z" id="0" vector-effect="non-scaling-stroke" fill="#000000"/>
		<path d="M 121.951 33.45 L 135.301 33.45 L 135.301 81.9 A 30.095 30.095 0 0 0 135.719 87.083 Q 136.208 89.881 137.273 92.115 A 14.583 14.583 0 0 0 139.276 95.25 A 12.628 12.628 0 0 0 145.725 99.283 Q 148.204 99.975 151.276 99.975 Q 157.126 99.975 162.301 97.2 A 32.627 32.627 0 0 0 169.314 92.087 A 39.51 39.51 0 0 0 171.826 89.475 L 171.826 33.45 L 185.176 33.45 L 185.176 109.425 L 177.226 109.425 A 4.386 4.386 0 0 1 175.789 109.206 Q 174.495 108.759 173.889 107.401 A 5.129 5.129 0 0 1 173.626 106.65 L 172.576 98.475 Q 167.626 103.95 161.476 107.288 A 27.499 27.499 0 0 1 151.705 110.361 A 34.589 34.589 0 0 1 147.376 110.625 A 32.065 32.065 0 0 1 141.861 110.172 A 24.184 24.184 0 0 1 136.388 108.563 Q 131.626 106.5 128.401 102.75 A 23.514 23.514 0 0 1 124.534 96.393 A 28.828 28.828 0 0 1 123.563 93.675 Q 121.951 88.35 121.951 81.9 L 121.951 33.45 Z" id="1" vector-effect="non-scaling-stroke" fill="#000000"/>
		<path d="M 220.501 109.425 L 207.151 109.425 L 207.151 33.45 L 214.801 33.45 A 9.028 9.028 0 0 1 215.804 33.502 Q 216.851 33.619 217.459 34.005 A 1.971 1.971 0 0 1 217.801 34.275 Q 218.626 35.1 218.926 37.125 L 219.826 48.975 Q 223.726 41.025 229.463 36.563 A 21.171 21.171 0 0 1 242.325 32.107 A 26.35 26.35 0 0 1 242.926 32.1 Q 246.076 32.1 248.626 32.813 Q 251.176 33.525 253.351 34.8 L 251.626 44.775 A 3.285 3.285 0 0 1 251.257 45.639 Q 250.677 46.563 249.523 46.643 A 3.235 3.235 0 0 1 249.301 46.65 A 4.694 4.694 0 0 1 248.642 46.597 Q 247.656 46.455 246.076 45.938 A 11.631 11.631 0 0 0 244.463 45.547 Q 242.866 45.268 240.683 45.231 A 40.219 40.219 0 0 0 240.001 45.225 A 19.846 19.846 0 0 0 234.335 46 A 16.048 16.048 0 0 0 228.338 49.275 A 23.972 23.972 0 0 0 224.297 53.857 Q 222.18 56.931 220.501 61.05 L 220.501 109.425 Z" id="2" vector-effect="non-scaling-stroke" fill="#000000"/>
		<path d="M 330.001 109.425 L 286.201 1.95 L 297.826 1.95 Q 299.584 1.95 300.733 2.743 A 3.887 3.887 0 0 1 300.976 2.925 Q 302.176 3.9 302.776 5.4 L 333.151 81.225 A 49.601 49.601 0 0 1 334.39 84.588 A 59.73 59.73 0 0 1 335.063 86.775 A 216.133 216.133 0 0 1 336.544 92.197 A 237.828 237.828 0 0 1 336.751 93 A 127.717 127.717 0 0 1 338.115 87.151 A 116.66 116.66 0 0 1 338.213 86.775 A 46.759 46.759 0 0 1 339.3 83.201 A 39.201 39.201 0 0 1 340.051 81.225 L 370.276 5.4 Q 370.801 4.125 372.076 3.038 A 4.52 4.52 0 0 1 374.592 1.983 A 5.968 5.968 0 0 1 375.226 1.95 L 386.926 1.95 L 343.126 109.425 L 330.001 109.425 Z" id="4" vector-effect="non-scaling-stroke" fill="#000000"/>
		<path d="M 400.051 33.45 L 413.401 33.45 L 413.401 109.425 L 400.051 109.425 L 400.051 33.45 Z M 416.401 9.6 Q 416.401 11.55 415.613 13.238 Q 414.826 14.925 413.513 16.238 Q 412.201 17.55 410.476 18.3 Q 408.751 19.05 406.801 19.05 A 8.912 8.912 0 0 1 403.482 18.434 A 8.575 8.575 0 0 1 403.163 18.3 Q 401.476 17.55 400.163 16.238 Q 398.851 14.925 398.101 13.238 A 8.826 8.826 0 0 1 397.351 9.722 A 10.077 10.077 0 0 1 397.351 9.6 Q 397.351 7.65 398.101 5.888 Q 398.851 4.125 400.163 2.813 Q 401.476 1.5 403.163 0.75 A 8.826 8.826 0 0 1 406.679 0.001 A 10.077 10.077 0 0 1 406.801 0 Q 408.751 0 410.476 0.75 Q 412.201 1.5 413.513 2.813 Q 414.826 4.125 415.613 5.888 Q 416.401 7.65 416.401 9.6 Z" id="5" vector-effect="non-scaling-stroke" fill="#000000"/>
		<path d="M 483.451 41.1 L 480.451 45.975 A 3.353 3.353 0 0 1 479.663 46.96 Q 478.978 47.532 478.003 47.612 A 3.982 3.982 0 0 1 477.676 47.625 A 3.714 3.714 0 0 1 476.712 47.489 Q 475.972 47.29 475.126 46.8 A 42.661 42.661 0 0 0 473.967 46.155 Q 473.447 45.875 472.865 45.577 A 81.741 81.741 0 0 0 471.638 44.963 Q 469.576 43.95 466.726 43.088 A 18.815 18.815 0 0 0 463.875 42.476 Q 462.527 42.288 461.008 42.241 A 33.396 33.396 0 0 0 459.976 42.225 A 22.714 22.714 0 0 0 456.675 42.454 A 17.431 17.431 0 0 0 453.901 43.088 A 16.35 16.35 0 0 0 451.254 44.184 A 12.954 12.954 0 0 0 449.288 45.45 Q 447.376 46.95 446.363 48.938 Q 445.351 50.925 445.351 53.25 A 8.348 8.348 0 0 0 445.671 55.613 A 6.666 6.666 0 0 0 447.038 58.125 A 12.947 12.947 0 0 0 449.281 60.153 A 17.403 17.403 0 0 0 451.501 61.5 A 34.839 34.839 0 0 0 454.86 62.996 A 44.842 44.842 0 0 0 457.801 64.013 A 336.15 336.15 0 0 1 464.575 66.184 A 366.907 366.907 0 0 1 465.038 66.338 Q 468.751 67.575 472.276 69.075 A 26.728 26.728 0 0 1 477.6 72.074 A 24.418 24.418 0 0 1 478.576 72.825 Q 481.351 75.075 483.038 78.338 A 14.545 14.545 0 0 1 484.379 82.299 Q 484.704 83.989 484.724 85.917 A 24.511 24.511 0 0 1 484.726 86.175 A 25.764 25.764 0 0 1 483.799 93.169 A 23.198 23.198 0 0 1 482.851 95.888 Q 480.976 100.35 477.301 103.613 A 24.975 24.975 0 0 1 471.618 107.37 A 31.319 31.319 0 0 1 468.301 108.75 A 31.873 31.873 0 0 1 462.177 110.213 Q 459.276 110.624 456.013 110.625 A 33.974 33.974 0 0 1 456.001 110.625 A 42.158 42.158 0 0 1 447.545 109.809 A 34.476 34.476 0 0 1 441.601 108.038 A 40.137 40.137 0 0 1 434.961 104.664 A 32.645 32.645 0 0 1 430.651 101.4 L 433.801 96.3 A 5.213 5.213 0 0 1 434.457 95.438 A 4.085 4.085 0 0 1 435.226 94.8 A 3.092 3.092 0 0 1 436.106 94.426 Q 436.678 94.275 437.401 94.275 A 3.977 3.977 0 0 1 438.744 94.522 Q 439.477 94.784 440.251 95.325 A 44.877 44.877 0 0 0 441.465 96.144 Q 442.552 96.853 443.888 97.65 A 22.508 22.508 0 0 0 445.931 98.723 Q 446.999 99.219 448.227 99.675 A 38.731 38.731 0 0 0 449.063 99.975 A 17.143 17.143 0 0 0 451.785 100.655 Q 453.959 101.025 456.676 101.025 A 25.524 25.524 0 0 0 459.902 100.831 Q 461.855 100.582 463.501 100.013 A 16.469 16.469 0 0 0 466.177 98.825 A 12.629 12.629 0 0 0 468.376 97.275 A 11.111 11.111 0 0 0 470.731 94.392 A 10.365 10.365 0 0 0 471.263 93.3 Q 472.201 91.05 472.201 88.5 A 9.679 9.679 0 0 0 471.922 86.12 A 7.202 7.202 0 0 0 470.513 83.288 Q 468.826 81.225 466.051 79.763 Q 463.276 78.3 459.713 77.213 Q 456.151 76.125 452.438 74.925 Q 448.726 73.725 445.163 72.188 Q 441.601 70.65 438.826 68.325 Q 436.051 66 434.363 62.588 Q 432.808 59.442 432.686 55.053 A 27.196 27.196 0 0 1 432.676 54.3 Q 432.676 49.95 434.476 45.938 Q 436.276 41.925 439.726 38.888 A 23.843 23.843 0 0 1 444.792 35.504 A 30.286 30.286 0 0 1 448.201 34.05 A 29.96 29.96 0 0 1 454.305 32.595 A 40.111 40.111 0 0 1 459.676 32.25 A 40.88 40.88 0 0 1 467.106 32.897 A 32.222 32.222 0 0 1 473.138 34.613 A 32.56 32.56 0 0 1 481.47 39.38 A 30.123 30.123 0 0 1 483.451 41.1 Z" id="6" vector-effect="non-scaling-stroke" fill="#000000"/>
		<path d="M 503.551 33.45 L 516.901 33.45 L 516.901 109.425 L 503.551 109.425 L 503.551 33.45 Z M 519.901 9.6 Q 519.901 11.55 519.113 13.238 Q 518.326 14.925 517.013 16.238 Q 515.701 17.55 513.976 18.3 Q 512.251 19.05 510.301 19.05 A 8.912 8.912 0 0 1 506.982 18.434 A 8.575 8.575 0 0 1 506.663 18.3 Q 504.976 17.55 503.663 16.238 Q 502.351 14.925 501.601 13.238 A 8.826 8.826 0 0 1 500.851 9.722 A 10.077 10.077 0 0 1 500.851 9.6 Q 500.851 7.65 501.601 5.888 Q 502.351 4.125 503.663 2.813 Q 504.976 1.5 506.663 0.75 A 8.826 8.826 0 0 1 510.179 0.001 A 10.077 10.077 0 0 1 510.301 0 Q 512.251 0 513.976 0.75 Q 515.701 1.5 517.013 2.813 Q 518.326 4.125 519.113 5.888 Q 519.901 7.65 519.901 9.6 Z" id="7" vector-effect="non-scaling-stroke" fill="#000000"/>
		<path d="M 579.824 33.08 A 43.103 43.103 0 0 0 571.201 32.25 A 45.678 45.678 0 0 0 566.033 32.535 A 36.512 36.512 0 0 0 556.163 35.025 Q 549.451 37.8 544.726 42.9 A 32.321 32.321 0 0 0 541.488 47.026 A 37.149 37.149 0 0 0 537.451 55.238 A 43.048 43.048 0 0 0 535.62 62.394 A 54.106 54.106 0 0 0 534.901 71.4 Q 534.901 80.4 537.451 87.6 A 40.547 40.547 0 0 0 538.495 90.253 A 34.072 34.072 0 0 0 544.726 99.9 Q 549.451 105 556.163 107.738 A 35.373 35.373 0 0 0 562.352 109.61 Q 566.464 110.463 571.071 110.475 A 50.484 50.484 0 0 0 571.201 110.475 A 46.201 46.201 0 0 0 576.49 110.18 A 36.863 36.863 0 0 0 586.238 107.738 Q 592.951 105 597.638 99.9 A 32.277 32.277 0 0 0 600.726 95.963 A 36.893 36.893 0 0 0 604.838 87.6 A 43.104 43.104 0 0 0 606.662 80.329 A 55.421 55.421 0 0 0 607.351 71.4 A 57.185 57.185 0 0 0 606.997 64.944 A 45.01 45.01 0 0 0 604.838 55.238 A 40.37 40.37 0 0 0 603.635 52.174 A 33.664 33.664 0 0 0 597.638 42.9 Q 592.951 37.8 586.238 35.025 A 35.102 35.102 0 0 0 579.824 33.08 Z M 571.201 100.05 A 26.534 26.534 0 0 0 577.951 99.243 A 17.657 17.657 0 0 0 588.001 92.513 A 25.742 25.742 0 0 0 591.843 84.617 Q 592.91 81.084 593.311 76.833 A 57.208 57.208 0 0 0 593.551 71.475 A 53.964 53.964 0 0 0 593.009 63.577 Q 592.375 59.303 591.001 55.831 A 24.529 24.529 0 0 0 588.001 50.325 A 17.93 17.93 0 0 0 576.469 43.224 A 27.832 27.832 0 0 0 571.201 42.75 Q 565.551 42.75 561.375 44.666 A 17.874 17.874 0 0 0 561.301 44.7 Q 557.101 46.65 554.288 50.325 Q 551.476 54 550.088 59.363 A 42.147 42.147 0 0 0 549.006 65.452 A 56.859 56.859 0 0 0 548.701 71.475 A 56.346 56.346 0 0 0 549.026 77.68 A 41.365 41.365 0 0 0 550.088 83.55 A 28.566 28.566 0 0 0 551.767 88.313 A 21.651 21.651 0 0 0 554.288 92.513 Q 557.101 96.15 561.301 98.1 A 20.327 20.327 0 0 0 566.461 99.67 A 28.146 28.146 0 0 0 571.201 100.05 Z" id="8" vector-effect="non-scaling-stroke" fill="#000000"/>
		<path d="M 637.201 109.425 L 623.851 109.425 L 623.851 33.45 L 631.801 33.45 A 4.386 4.386 0 0 1 633.238 33.67 Q 634.532 34.117 635.137 35.474 A 5.129 5.129 0 0 1 635.401 36.225 L 636.451 44.475 A 42.898 42.898 0 0 1 646.754 36.055 A 40.629 40.629 0 0 1 647.513 35.625 A 26.98 26.98 0 0 1 657.054 32.548 A 34.5 34.5 0 0 1 661.651 32.25 A 32.065 32.065 0 0 1 667.165 32.703 A 24.184 24.184 0 0 1 672.638 34.313 Q 677.401 36.375 680.588 40.163 A 24.538 24.538 0 0 1 684.376 46.401 A 30.022 30.022 0 0 1 685.426 49.275 Q 687.076 54.6 687.076 61.05 L 687.076 109.425 L 673.726 109.425 L 673.726 61.05 Q 673.726 52.425 669.788 47.663 Q 666.139 43.249 658.915 42.926 A 26.046 26.046 0 0 0 657.751 42.9 Q 651.826 42.9 646.688 45.75 A 34.97 34.97 0 0 0 639.425 51.164 A 41.754 41.754 0 0 0 637.201 53.475 L 637.201 109.425 Z" id="9" vector-effect="non-scaling-stroke" fill="#000000"/>
	</g>
</svg>